<?xml version="1.0" encoding="utf-8"?>
<!-- Generator: Adobe Illustrator 19.2.1, SVG Export Plug-In . SVG Version: 6.00 Build 0)  -->
<svg version="1.1" id="Layer_1" xmlns="http://www.w3.org/2000/svg" xmlns:xlink="http://www.w3.org/1999/xlink" x="0px" y="0px"
	 viewBox="0 0 101 101" style="enable-background:new 0 0 101 101;" xml:space="preserve">
<style type="text/css">
	.st0{fill-rule:evenodd;clip-rule:evenodd;fill:url(#SVGID_1_);}
	.st1{fill:url(#SVGID_2_);}
	.st2{fill:url(#SVGID_3_);}
	.st3{fill:url(#SVGID_4_);}
	.st4{fill:url(#SVGID_5_);}
	.st5{opacity:0.3;fill:#231F20;}
	.st6{opacity:0.6;fill:#231F20;}
	.st7{fill:#FFFFFF;}
	.st8{opacity:0.4;}
	.st9{fill:url(#SVGID_6_);}
	.st10{fill:url(#SVGID_7_);}
	.st11{fill:url(#SVGID_8_);}
	.st12{fill:url(#SVGID_9_);}
	.st13{fill:url(#SVGID_10_);}
	.st14{fill:url(#SVGID_11_);}
	.st15{fill:url(#SVGID_12_);}
	.st16{fill:url(#SVGID_13_);}
</style>
<radialGradient id="SVGID_1_" cx="-432.7892" cy="6366.2119" r="0" gradientTransform="matrix(1.3419 0 0 0.1795 446.4113 -1033.7877)" gradientUnits="userSpaceOnUse">
	<stop  offset="0" style="stop-color:#E2E5E2"/>
	<stop  offset="0.2014" style="stop-color:#EFF1EE"/>
	<stop  offset="0.2857" style="stop-color:#F6F7F5"/>
	<stop  offset="0.3818" style="stop-color:#F8F9F7"/>
	<stop  offset="1" style="stop-color:#FFFFFE"/>
</radialGradient>
<path class="st0" d="M-134.3,108.9"/>
<g>
	<g>
		<linearGradient id="SVGID_2_" gradientUnits="userSpaceOnUse" x1="-35.1264" y1="51.4336" x2="-35.1264" y2="51.4336">
			<stop  offset="0" style="stop-color:#B1B7C2"/>
			<stop  offset="1" style="stop-color:#FFFFFF"/>
		</linearGradient>
		<path class="st1" d="M-35.1,51.4"/>
		<linearGradient id="SVGID_3_" gradientUnits="userSpaceOnUse" x1="-50.4453" y1="21.9355" x2="-50.4453" y2="21.9355">
			<stop  offset="0" style="stop-color:#0032C3"/>
			<stop  offset="0.4188" style="stop-color:#0077BA"/>
			<stop  offset="0.8123" style="stop-color:#00B1B2"/>
			<stop  offset="1" style="stop-color:#00C8AF"/>
		</linearGradient>
		<path class="st2" d="M-50.4,21.9"/>
	</g>
</g>
<linearGradient id="SVGID_4_" gradientUnits="userSpaceOnUse" x1="9.8395" y1="92.079" x2="98.5623" y2="-3.4031">
	<stop  offset="0" style="stop-color:#B1B7C2"/>
	<stop  offset="1" style="stop-color:#FFFFFF"/>
</linearGradient>
<path class="st3" d="M30.6,5.5C40.2-4.9,95,28.6,97.5,51.4c2.5,22.8-54.7,59-71.1,43.6C12.2,81.7,4.7,33.9,30.6,5.5z"/>
<linearGradient id="SVGID_5_" gradientUnits="userSpaceOnUse" x1="-9.108" y1="104.0862" x2="75.2252" y2="20.6359">
	<stop  offset="0" style="stop-color:#124B97"/>
	<stop  offset="0.4258" style="stop-color:#7D4196"/>
	<stop  offset="0.8226" style="stop-color:#DA3894"/>
	<stop  offset="1" style="stop-color:#FF3494"/>
</linearGradient>
<path class="st4" d="M51.1,96.2C37.4,98.6-0.8,52,5.5,32.8C11.7,13.7,55,5.5,82.2,21.9C111.5,39.5,74.4,92.2,51.1,96.2z"/>
<path class="st5" d="M73.5,30.5c15.4,6.6,6.6,42.1-4.6,50.9C57,90.6,17.9,86.5,16.3,52C15.6,36.3,40.1,16.1,73.5,30.5z"/>
<path class="st6" d="M73.5,28.9c15.4,6.6,6.6,42.1-4.6,50.9C57,89.1,17.9,84.9,16.3,50.4C15.6,34.7,40.1,14.5,73.5,28.9z"/>
<path class="st7" d="M73.5,27c15.4,6.6,6.6,42.1-4.6,50.9C57,87.1,17.9,83,16.3,48.5C15.6,32.8,40.1,12.6,73.5,27z"/>
<g class="st8">
	<path class="st7" d="M53.1,81.3c-8.8,0-17.5-2.8-23.9-7.7c-8-6-12.5-15-13-26.1c-0.2-5.1,2.2-10.7,6.7-15.4
		c6.8-7.1,17.1-11.2,28.2-11.2c7.3,0,14.8,1.7,22.4,4.9c4.4,1.9,7.2,6.4,8.1,12.9C83.3,51.8,77,70.7,68.9,77
		C65.4,79.7,59.7,81.3,53.1,81.3z M51.1,21.2c-11.1,0-21.3,4-28.1,11.1c-4.4,4.6-6.8,10.2-6.6,15.2C17.5,70.7,35.7,81,53.1,81
		c6.5,0,12.2-1.5,15.6-4.2c8-6.3,14.2-25.1,12.6-37.9c-0.8-6.5-3.6-10.9-7.9-12.8C65.8,22.8,58.3,21.2,51.1,21.2z"/>
</g>
<rect x="24.9" y="48.1" class="st7" width="4.9" height="2.3"/>
<rect x="56.5" y="52.4" class="st7" width="3.4" height="1"/>
<path class="st7" d="M73.5,26c-33.4-14.4-57.9,5.8-57.1,21.5C17.9,82,57,86.1,68.8,76.9C80.1,68.1,88.9,32.6,73.5,26z M31.7,55.5
	h-1.9v-3h-4.9v3H23V48c0-0.5,0.2-1,0.5-1.4c0.3-0.4,0.8-0.6,1.3-0.6h5.1c0.5,0,0.9,0.2,1.3,0.6c0.3,0.4,0.5,0.8,0.5,1.4V55.5z
	 M36.3,55.5h-1.5c-0.5,0-0.9-0.2-1.2-0.6c-0.3-0.4-0.5-0.8-0.5-1.3v-8.1h1.9v8h1.4V55.5z M40.4,55.5h-1.5c-0.5,0-0.9-0.2-1.2-0.6
	c-0.3-0.4-0.5-0.8-0.5-1.3v-8.1H39v8h1.4V55.5z M51.1,55.5h-1.4l-2-6l-0.8,2.3l-1.3,3.7h-1.4L41,46.1h2l1.9,5.6l0.3-0.9l1.6-4.7h1.7
	l1.9,5.6l0.3-0.9l1.6-4.7h2L51.1,55.5z M61.7,55.5h-5.3c-0.5,0-0.9-0.2-1.2-0.6c-0.3-0.4-0.5-0.8-0.5-1.3v-2.9h5.2v-0.8h-5.2v-2H60
	c0.5,0,0.9,0.2,1.2,0.6c0.3,0.4,0.5,0.8,0.5,1.3V55.5z M64.9,55.5H63v-7.5h1.8V55.5z M64.9,47.5H63v-2h1.8V47.5z M70.5,47.5h-2.6
	v0.5h2.6v2h-2.6v5.6H66v-8.1c0-0.5,0.2-1,0.5-1.3c0.3-0.4,0.8-0.6,1.2-0.6h2.7V47.5z M78,54.9c-0.3,0.4-0.8,0.6-1.2,0.6h-3.6
	c-0.5,0-0.9-0.2-1.2-0.6c-0.3-0.4-0.5-0.8-0.5-1.3v-5.7h1.8v5.6h3.4v-5.6h1.8v5.7C78.5,54.1,78.3,54.5,78,54.9z"/>
<g>
	<linearGradient id="SVGID_6_" gradientUnits="userSpaceOnUse" x1="-7.814603e-002" y1="76.9339" x2="60.9219" y2="19.9339">
		<stop  offset="0" style="stop-color:#124B97"/>
		<stop  offset="0.4258" style="stop-color:#7D4196"/>
		<stop  offset="0.8226" style="stop-color:#DA3894"/>
		<stop  offset="1" style="stop-color:#FF3494"/>
	</linearGradient>
	<path class="st9" d="M24.8,46.1h5.1c0.5,0,0.9,0.2,1.3,0.6c0.3,0.4,0.5,0.8,0.5,1.4v7.4h-1.9v-3h-4.9v3H23V48c0-0.5,0.2-1,0.5-1.4
		C23.9,46.3,24.3,46.1,24.8,46.1z M24.9,50.4h4.9v-2.3h-4.9V50.4z"/>
	<linearGradient id="SVGID_7_" gradientUnits="userSpaceOnUse" x1="2.8929" y1="80.1135" x2="63.8929" y2="23.1135">
		<stop  offset="0" style="stop-color:#124B97"/>
		<stop  offset="0.4258" style="stop-color:#7D4196"/>
		<stop  offset="0.8226" style="stop-color:#DA3894"/>
		<stop  offset="1" style="stop-color:#FF3494"/>
	</linearGradient>
	<path class="st10" d="M33,45.5h1.9v8h1.4v2h-1.5c-0.5,0-0.9-0.2-1.2-0.6c-0.3-0.4-0.5-0.8-0.5-1.3V45.5z"/>
	<linearGradient id="SVGID_8_" gradientUnits="userSpaceOnUse" x1="4.838" y1="82.1951" x2="65.838" y2="25.1951">
		<stop  offset="0" style="stop-color:#124B97"/>
		<stop  offset="0.4258" style="stop-color:#7D4196"/>
		<stop  offset="0.8226" style="stop-color:#DA3894"/>
		<stop  offset="1" style="stop-color:#FF3494"/>
	</linearGradient>
	<path class="st11" d="M37.2,45.5H39v8h1.4v2h-1.5c-0.5,0-0.9-0.2-1.2-0.6c-0.3-0.4-0.5-0.8-0.5-1.3V45.5z"/>
	<linearGradient id="SVGID_9_" gradientUnits="userSpaceOnUse" x1="8.3893" y1="85.9956" x2="69.3893" y2="28.9956">
		<stop  offset="0" style="stop-color:#124B97"/>
		<stop  offset="0.4258" style="stop-color:#7D4196"/>
		<stop  offset="0.8226" style="stop-color:#DA3894"/>
		<stop  offset="1" style="stop-color:#FF3494"/>
	</linearGradient>
	<path class="st12" d="M52.3,46.1h2l-3.2,9.4h-1.4l-2-6l-0.8,2.3l-1.3,3.7h-1.4L41,46.1h2l1.9,5.6l0.3-0.9l1.6-4.7h1.7l1.9,5.6
		l0.3-0.9L52.3,46.1z"/>
	<linearGradient id="SVGID_10_" gradientUnits="userSpaceOnUse" x1="14.5081" y1="92.5437" x2="75.5081" y2="35.5437">
		<stop  offset="0" style="stop-color:#124B97"/>
		<stop  offset="0.4258" style="stop-color:#7D4196"/>
		<stop  offset="0.8226" style="stop-color:#DA3894"/>
		<stop  offset="1" style="stop-color:#FF3494"/>
	</linearGradient>
	<path class="st13" d="M60,47.9c0.5,0,0.9,0.2,1.2,0.6c0.3,0.4,0.5,0.8,0.5,1.3v5.7h-5.3c-0.5,0-0.9-0.2-1.2-0.6
		c-0.3-0.4-0.5-0.8-0.5-1.3v-2.9h5.2v-0.8h-5.2v-2H60z M59.9,53.5v-1h-3.4v1H59.9z"/>
	<linearGradient id="SVGID_11_" gradientUnits="userSpaceOnUse" x1="16.5635" y1="94.7434" x2="77.5635" y2="37.7434">
		<stop  offset="0" style="stop-color:#124B97"/>
		<stop  offset="0.4258" style="stop-color:#7D4196"/>
		<stop  offset="0.8226" style="stop-color:#DA3894"/>
		<stop  offset="1" style="stop-color:#FF3494"/>
	</linearGradient>
	<path class="st14" d="M63,45.5h1.8v2H63V45.5z M63,55.5v-7.5h1.8v7.5H63z"/>
	<linearGradient id="SVGID_12_" gradientUnits="userSpaceOnUse" x1="18.2211" y1="96.5173" x2="79.2211" y2="39.5173">
		<stop  offset="0" style="stop-color:#124B97"/>
		<stop  offset="0.4258" style="stop-color:#7D4196"/>
		<stop  offset="0.8226" style="stop-color:#DA3894"/>
		<stop  offset="1" style="stop-color:#FF3494"/>
	</linearGradient>
	<path class="st15" d="M70.5,47.5h-2.6v0.5h2.6v2h-2.6v5.6H66v-8.1c0-0.5,0.2-1,0.5-1.3c0.3-0.4,0.8-0.6,1.2-0.6h2.7V47.5z"/>
	<linearGradient id="SVGID_13_" gradientUnits="userSpaceOnUse" x1="22.0667" y1="100.6328" x2="83.0667" y2="43.6328">
		<stop  offset="0" style="stop-color:#124B97"/>
		<stop  offset="0.4258" style="stop-color:#7D4196"/>
		<stop  offset="0.8226" style="stop-color:#DA3894"/>
		<stop  offset="1" style="stop-color:#FF3494"/>
	</linearGradient>
	<path class="st16" d="M76.7,47.9h1.8v5.7c0,0.5-0.2,1-0.5,1.3c-0.3,0.4-0.8,0.6-1.2,0.6h-3.6c-0.5,0-0.9-0.2-1.2-0.6
		c-0.3-0.4-0.5-0.8-0.5-1.3v-5.7h1.8v5.6h3.4V47.9z"/>
</g>
</svg>
