<?xml version="1.0"?>
<svg xmlns="http://www.w3.org/2000/svg" xmlns:xlink="http://www.w3.org/1999/xlink" version="1.1" id="Capa_1" x="0px" y="0px" width="512px" height="512px" viewBox="0 0 30.451 30.451" style="enable-background:new 0 0 30.451 30.451;" xml:space="preserve" class=""><g><g>
	<g>
		<polygon points="15.226,19.97 18.291,18.97 17.291,12.838 13.16,12.838 12.16,18.97   " data-original="#000000" class="active-path" data-old_color="#F9F9F9" fill="#FCFCFC"/>
		<polygon points="15.226,20.97 12.16,19.97 15.226,23.28 18.291,19.97   " data-original="#000000" class="active-path" data-old_color="#F9F9F9" fill="#FCFCFC"/>
		<polygon points="15.226,23.28 12.643,25.864 6.184,23.28 11.351,27.155 15.226,25.864 19.102,27.155 24.268,23.28 17.809,25.864       " data-original="#000000" class="active-path" data-old_color="#F9F9F9" fill="#FCFCFC"/>
		<polygon points="18.941,15.403 21.941,15.403 23.51,13.403 25.51,10.838 17.941,12.838   " data-original="#000000" class="active-path" data-old_color="#F9F9F9" fill="#FCFCFC"/>
		<polygon points="8.509,15.403 11.509,15.403 12.509,12.838 4.942,10.838 6.942,13.403   " data-original="#000000" class="active-path" data-old_color="#F9F9F9" fill="#FCFCFC"/>
		<polygon points="29.062,3.296 24.535,4.865 28.882,9.213 30.451,6.434   " data-original="#000000" class="active-path" data-old_color="#F9F9F9" fill="#FCFCFC"/>
		<polygon points="1.389,3.296 0,6.434 1.569,9.213 5.917,4.865   " data-original="#000000" class="active-path" data-old_color="#F9F9F9" fill="#FCFCFC"/>
	</g>
</g></g> </svg>
