<svg xmlns="http://www.w3.org/2000/svg" xmlns:xlink="http://www.w3.org/1999/xlink" viewBox="0 0 96.25 95.21"><defs><style>.cls-1{isolation:isolate;}.cls-2{fill-rule:evenodd;mix-blend-mode:multiply;fill:url(#radial-gradient);}.cls-3{fill:url(#linear-gradient);}.cls-4{fill:url(#linear-gradient-2);}.cls-5{fill:url(#linear-gradient-3);}.cls-6{fill:url(#Безымянный_градиент_359);}.cls-7,.cls-8{fill:#231f20;}.cls-7{opacity:0.3;}.cls-10,.cls-7,.cls-8{mix-blend-mode:overlay;}.cls-8{opacity:0.6;}.cls-9{fill:#fff;}.cls-10{opacity:0.4;}.cls-11{fill:url(#Безымянный_градиент_359-2);}.cls-12{fill:url(#Безымянный_градиент_359-3);}.cls-13{fill:url(#Безымянный_градиент_359-4);}.cls-14{fill:url(#Безымянный_градиент_359-5);}.cls-15{fill:url(#Безымянный_градиент_359-6);}.cls-16{fill:url(#Безымянный_градиент_359-7);}.cls-17{fill:url(#Безымянный_градиент_359-8);}.cls-18{fill:url(#Безымянный_градиент_359-9);}</style><radialGradient id="radial-gradient" cx="-436.49" cy="6365.41" r="0" gradientTransform="translate(447.68 -1034.44) scale(1.34 0.18)" gradientUnits="userSpaceOnUse"><stop offset="0" stop-color="#e2e5e2"/><stop offset="0.2" stop-color="#eff1ee"/><stop offset="0.29" stop-color="#f6f7f5"/><stop offset="0.38" stop-color="#f8f9f7"/><stop offset="1" stop-color="#fffffe"/></radialGradient><linearGradient id="linear-gradient" x1="-38.83" y1="50.63" x2="-38.83" y2="50.63" gradientUnits="userSpaceOnUse"><stop offset="0" stop-color="#b1b7c2"/><stop offset="1" stop-color="#fff"/></linearGradient><linearGradient id="linear-gradient-2" x1="-54.15" y1="21.14" x2="-54.15" y2="21.14" gradientUnits="userSpaceOnUse"><stop offset="0" stop-color="#0032c3"/><stop offset="0.42" stop-color="#0077ba"/><stop offset="0.81" stop-color="#00b1b2"/><stop offset="1" stop-color="#00c8af"/></linearGradient><linearGradient id="linear-gradient-3" x1="6.14" y1="91.28" x2="94.86" y2="-4.2" xlink:href="#linear-gradient"/><linearGradient id="Безымянный_градиент_359" x1="-12.81" y1="103.29" x2="71.53" y2="19.84" gradientUnits="userSpaceOnUse"><stop offset="0.01" stop-color="blue"/><stop offset="0.47" stop-color="#1f7ddb"/><stop offset="0.84" stop-color="#36dac1"/><stop offset="1" stop-color="#3fffb6"/></linearGradient><linearGradient id="Безымянный_градиент_359-2" x1="-3.78" y1="76.13" x2="57.22" y2="19.13" xlink:href="#Безымянный_градиент_359"/><linearGradient id="Безымянный_градиент_359-3" x1="-0.81" y1="79.31" x2="60.19" y2="22.31" xlink:href="#Безымянный_градиент_359"/><linearGradient id="Безымянный_градиент_359-4" x1="1.14" y1="81.4" x2="62.14" y2="24.4" xlink:href="#Безымянный_градиент_359"/><linearGradient id="Безымянный_градиент_359-5" x1="4.69" y1="85.2" x2="65.69" y2="28.2" xlink:href="#Безымянный_градиент_359"/><linearGradient id="Безымянный_градиент_359-6" x1="10.81" y1="91.74" x2="71.81" y2="34.74" xlink:href="#Безымянный_градиент_359"/><linearGradient id="Безымянный_градиент_359-7" x1="12.86" y1="93.94" x2="73.86" y2="36.94" xlink:href="#Безымянный_градиент_359"/><linearGradient id="Безымянный_градиент_359-8" x1="14.52" y1="95.72" x2="75.52" y2="38.72" xlink:href="#Безымянный_градиент_359"/><linearGradient id="Безымянный_градиент_359-9" x1="18.37" y1="99.83" x2="79.37" y2="42.83" xlink:href="#Безымянный_градиент_359"/></defs><title>logo_z</title><g class="cls-1"><g id="Layer_1" data-name="Layer 1"><path class="cls-2" d="M-138,108.15" transform="translate(-1.1 -2.76)"/><path class="cls-3" d="M-38.83,50.63" transform="translate(-1.1 -2.76)"/><path class="cls-4" d="M-54.15,21.14" transform="translate(-1.1 -2.76)"/><path class="cls-5" d="M26.92,4.72C36.45-5.72,91.3,27.79,93.84,50.63s-54.68,59-71.09,43.63C8.5,80.89,1,33.11,26.92,4.72Z" transform="translate(-1.1 -2.76)"/><path class="cls-6" d="M47.42,95.45C33.68,97.84-4.47,51.21,1.78,32S51.27,4.73,78.52,21.14C107.77,38.75,70.7,91.39,47.42,95.45Z" transform="translate(-1.1 -2.76)"/><path class="cls-7" d="M69.77,29.7c15.4,6.64,6.6,42.1-4.62,50.89-11.82,9.25-50.89,5.14-52.5-29.39C11.9,35.52,36.37,15.29,69.77,29.7Z" transform="translate(-1.1 -2.76)"/><path class="cls-8" d="M69.77,28.11c15.4,6.64,6.6,42.11-4.62,50.89-11.82,9.25-50.89,5.14-52.5-29.39C11.9,33.94,36.37,13.7,69.77,28.11Z" transform="translate(-1.1 -2.76)"/><path class="cls-9" d="M69.77,26.2c15.4,6.64,6.6,42.1-4.62,50.89-11.82,9.25-50.89,5.14-52.5-29.39C11.9,32,36.37,11.79,69.77,26.2Z" transform="translate(-1.1 -2.76)"/><g class="cls-10"><path class="cls-9" d="M49.44,80.47a40.4,40.4,0,0,1-23.95-7.68c-8-6-12.46-15-13-26.09C12.27,41.61,14.71,36,19.19,31.3,26,24.21,36.25,20.14,47.42,20.14a56.56,56.56,0,0,1,22.39,4.94C74.25,27,77,31.47,77.88,38,79.55,51,73.28,69.87,65.22,76.19,61.73,78.91,56,80.47,49.44,80.47Zm-2-60.08c-11.11,0-21.33,4-28.05,11.08-4.43,4.65-6.84,10.19-6.61,15.22C13.84,69.86,32,80.22,49.44,80.22c6.49,0,12.19-1.54,15.63-4.24,8-6.27,14.23-25.05,12.57-37.92-0.83-6.47-3.57-10.88-7.92-12.75A56.32,56.32,0,0,0,47.42,20.39Z" transform="translate(-1.1 -2.76)"/></g><rect class="cls-9" x="20.08" y="44.59" width="4.91" height="2.29"/><rect class="cls-9" x="51.72" y="48.89" width="3.39" height="1.04"/><path class="cls-9" d="M69.77,25.2C36.37,10.79,11.9,31,12.64,46.7c1.61,34.53,40.68,38.64,52.5,29.39C76.36,67.3,85.16,31.84,69.77,25.2ZM28,54.68H26.08v-3H21.17v3H19.31V47.24a1.94,1.94,0,0,1,.52-1.37,1.65,1.65,0,0,1,1.26-.56h5.09a1.66,1.66,0,0,1,1.27.57A1.93,1.93,0,0,1,28,47.24v7.44Zm4.58,0H31a1.62,1.62,0,0,1-1.23-.56,1.89,1.89,0,0,1-.52-1.33V44.65h1.85v8h1.41v2Zm4.17,0H35.21A1.62,1.62,0,0,1,34,54.12a1.89,1.89,0,0,1-.52-1.33V44.65h1.85v8h1.41v2Zm10.68,0H46l-2-6-0.77,2.29-1.26,3.73H40.46l-3.15-9.36h2l1.89,5.58,0.3-.87,1.59-4.71h1.72l1.9,5.58L47,50l1.59-4.71h2Zm10.64,0H52.72a1.61,1.61,0,0,1-1.23-.56A1.9,1.9,0,0,1,51,52.79V49.91h5.23V49.13H51v-2H56.3a1.61,1.61,0,0,1,1.23.56A1.9,1.9,0,0,1,58,49v5.66Zm3.12,0H59.32V47.14h1.84v7.54Zm0-8H59.32v-2h1.84v2Zm5.59,0H64.17v0.47h2.59v2H64.17v5.55H62.33V46.55a1.9,1.9,0,0,1,.51-1.33,1.63,1.63,0,0,1,1.25-.56h2.67v2Zm7.55,7.45a1.61,1.61,0,0,1-1.23.56H69.48a1.61,1.61,0,0,1-1.23-.56,1.9,1.9,0,0,1-.51-1.33V47.14h1.84v5.55H73V47.14h1.84v5.66A1.9,1.9,0,0,1,74.3,54.12Z" transform="translate(-1.1 -2.76)"/><path class="cls-11" d="M21.09,45.32h5.09a1.66,1.66,0,0,1,1.27.57A1.93,1.93,0,0,1,28,47.24v7.44H26.08v-3H21.17v3H19.31V47.24a1.94,1.94,0,0,1,.52-1.37A1.65,1.65,0,0,1,21.09,45.32Zm0.08,4.32h4.91V47.35H21.17v2.29Z" transform="translate(-1.1 -2.76)"/><path class="cls-12" d="M29.29,44.65h1.85v8h1.41v2H31a1.62,1.62,0,0,1-1.23-.56,1.89,1.89,0,0,1-.52-1.33V44.65Z" transform="translate(-1.1 -2.76)"/><path class="cls-13" d="M33.46,44.65h1.85v8h1.41v2H35.21A1.62,1.62,0,0,1,34,54.12a1.89,1.89,0,0,1-.52-1.33V44.65Z" transform="translate(-1.1 -2.76)"/><path class="cls-14" d="M48.58,45.32h2L47.4,54.68H46l-2-6-0.77,2.29-1.26,3.73H40.46l-3.15-9.36h2l1.89,5.58,0.3-.87,1.59-4.71h1.72l1.9,5.58L47,50Z" transform="translate(-1.1 -2.76)"/><path class="cls-15" d="M56.3,47.14a1.61,1.61,0,0,1,1.23.56A1.9,1.9,0,0,1,58,49v5.66H52.72a1.61,1.61,0,0,1-1.23-.56A1.9,1.9,0,0,1,51,52.79V49.91h5.23V49.13H51v-2H56.3Zm-0.1,5.55v-1H52.81v1h3.39Z" transform="translate(-1.1 -2.76)"/><path class="cls-16" d="M59.32,44.67h1.84v2H59.32v-2Zm0,10V47.14h1.84v7.54H59.32Z" transform="translate(-1.1 -2.76)"/><path class="cls-17" d="M66.75,46.67H64.17v0.47h2.59v2H64.17v5.55H62.33V46.55a1.9,1.9,0,0,1,.51-1.33,1.63,1.63,0,0,1,1.25-.56h2.67v2Z" transform="translate(-1.1 -2.76)"/><path class="cls-18" d="M73,47.14h1.84v5.66a1.9,1.9,0,0,1-.51,1.33,1.61,1.61,0,0,1-1.23.56H69.48a1.61,1.61,0,0,1-1.23-.56,1.9,1.9,0,0,1-.51-1.33V47.14h1.84v5.55H73V47.14Z" transform="translate(-1.1 -2.76)"/><text x="-1.1" y="-2.76"/></g></g></svg>